<?xml version="1.0" encoding="UTF-8" standalone="no"?><!DOCTYPE svg PUBLIC "-//W3C//DTD SVG 1.1//EN" "http://www.w3.org/Graphics/SVG/1.1/DTD/svg11.dtd"><svg width="100%" height="100%" viewBox="0 0 1000 1000" version="1.1" xmlns="http://www.w3.org/2000/svg" xmlns:xlink="http://www.w3.org/1999/xlink" xml:space="preserve" xmlns:serif="http://www.serif.com/" style="fill-rule:evenodd;clip-rule:evenodd;stroke-linejoin:round;stroke-miterlimit:2;"><clipPath id="_clip1"><rect x="384.894" y="450" width="261.866" height="375"/></clipPath><g clip-path="url(#_clip1)"><path d="M384.894,825l47.416,-358.853l204.751,0l-112.074,358.853l-140.093,0Zm150.869,-585.696c-31.611,0 -58.013,-10.417 -79.206,-31.251c-21.194,-20.834 -31.79,-46.877 -31.79,-78.129c0,-31.251 10.597,-57.294 31.79,-78.129c21.194,-20.834 47.596,-31.251 79.206,-31.251c31.611,0 58.013,10.417 79.206,31.251c21.194,20.834 31.79,46.877 31.79,78.129c0,31.251 -10.597,57.294 -31.79,78.129c-21.194,20.834 -47.596,31.251 -79.206,31.251Z" style="fill-rule:nonzero;"/></g><clipPath id="_clip2"><rect x="384.894" y="191.971" width="266.048" height="275"/></clipPath><g clip-path="url(#_clip2)"><path d="M384.894,1065.273l48.173,-389.564l208.021,0l-113.864,389.564l-142.33,0Zm153.279,-635.82c-32.115,0 -58.939,-11.309 -80.471,-33.926c-21.532,-22.617 -32.298,-50.889 -32.298,-84.815c0,-33.926 10.766,-62.198 32.298,-84.815c21.532,-22.617 48.356,-33.926 80.471,-33.926c32.115,0 58.939,11.309 80.471,33.926c21.532,22.617 32.298,50.889 32.298,84.815c0,33.926 -10.766,62.198 -32.298,84.815c-21.532,22.617 -48.356,33.926 -80.471,33.926Z" style="fill-rule:nonzero;"/></g></svg>